<svg width="51" height="62" viewBox="0 0 51 62" fill="none" xmlns="http://www.w3.org/2000/svg">
<path d="M17.7121 59.0893L19.5342 40.3479C19.5975 39.6974 19.0345 39.1558 18.3854 39.2326C14.7597 39.6612 4.57993 40.4819 3.59727 36.3365C2.84378 33.1579 7.05743 29.6246 9.20851 28.0584C9.7765 27.6449 9.81624 26.7721 9.28046 26.3176C6.77531 24.1925 1.16703 18.847 3.59727 15.4006C5.94746 12.0677 13.6098 14.0819 16.5494 15.0093C17.1549 15.2003 17.8075 14.8119 17.936 14.1901C18.603 10.9616 20.8579 2.40644 25.9876 2.657C30.9109 2.89748 32.9524 10.9934 33.563 14.1542C33.6857 14.7893 34.3539 15.1848 34.9691 14.9849C37.8315 14.0553 45.0249 12.1349 47.4045 15.4006C50.0034 18.9674 43.4449 24.0338 40.2602 26.1937C39.5894 26.6486 39.6481 27.715 40.3592 28.1039C43.1318 29.6204 48.21 32.9144 47.4045 36.3365C46.4312 40.4708 36.3043 39.6666 32.6483 39.2366C31.9893 39.1591 31.4206 39.7182 31.5006 40.3768L33.7756 59.0902" stroke="#FFA000" stroke-width="5" stroke-linecap="round"/>
</svg>
