<svg width="41" height="51" viewBox="0 0 41 51" fill="none" xmlns="http://www.w3.org/2000/svg">
<path fill-rule="evenodd" clip-rule="evenodd" d="M28.8831 39.7973L28.9 39.1059C28.9 37.4032 29.3 36.0329 30.1 34.9951C35.7 30.1149 38.5 25.4478 38.5 20.9936C38.5 11.0809 30.4411 3.0451 20.5 3.0451C10.5589 3.0451 2.5 11.0809 2.5 20.9936C2.5 25.4198 5.3 30.087 10.9 34.9951C11.6111 35.9176 12.0062 37.1028 12.0852 38.5507L12.107 39.5521L12.1321 40.0557L12.1811 40.6071C12.1917 40.7024 12.2034 40.7994 12.2166 40.8977L12.313 41.5027C12.8495 44.3885 14.6622 48.0451 20.5 48.0451C26.3378 48.0451 28.1505 44.3885 28.687 41.5027L28.7834 40.8977L28.8468 40.326L28.8831 39.7973Z" stroke="#FF8F00" stroke-width="5" stroke-linecap="round" stroke-linejoin="round"/>
<path d="M12.2505 38.0596C14.8442 39.033 17.5941 39.5197 20.5 39.5197C23.406 39.5197 26.156 39.033 28.75 38.0596" stroke="#FF8F00" stroke-width="5" stroke-linecap="round" stroke-linejoin="round"/>
</svg>
