<svg width="53" height="52" viewBox="0 0 53 52" fill="none" xmlns="http://www.w3.org/2000/svg">
<path fill-rule="evenodd" clip-rule="evenodd" d="M27.2601 29.7636L27.2667 29.4871C27.2667 28.806 27.4222 28.2579 27.7333 27.8427C29.9111 25.8907 31 24.0238 31 22.2421C31 18.2771 27.866 15.0627 24 15.0627C20.134 15.0627 17 18.2771 17 22.2421C17 24.0126 18.0889 25.8795 20.2667 27.8427C20.5432 28.2118 20.6968 28.6858 20.7276 29.265L20.7361 29.6655L20.7458 29.867L20.7649 30.0875C20.769 30.1257 20.7736 30.1645 20.7787 30.2038L20.8162 30.4458C21.0248 31.6001 21.7297 33.0627 24 33.0627C26.2703 33.0627 26.9752 31.6001 27.1838 30.4458L27.2213 30.2038L27.246 29.9751L27.2601 29.7636Z" stroke="#FF8F00" stroke-width="5" stroke-linecap="round" stroke-linejoin="round"/>
<path d="M49 48.3484L38.376 37.7059M44.2632 23.48C44.2632 34.5983 35.2499 43.6115 24.1316 43.6115C13.0132 43.6115 4 34.5983 4 23.48C4 12.3616 13.0132 3.34839 24.1316 3.34839C35.2499 3.34839 44.2632 12.3616 44.2632 23.48Z" stroke="#FF8F00" stroke-width="6.60119" stroke-linecap="round"/>
</svg>
