<svg width="280" height="380" viewBox="0 0 280 380" fill="none" xmlns="http://www.w3.org/2000/svg">
<g clip-path="url(#clip0_629_479)">
<rect width="280" height="380" fill="#180E64"/>
<rect width="280" height="380" fill="#180E64"/>
<circle cx="142" cy="186" r="181" fill="#150C57"/>
<circle cx="140" cy="191" r="139" fill="#130B4B"/>
<circle cx="140" cy="191" r="125.699" fill="#1C1265"/>
<circle cx="140.308" cy="81.3086" r="10.3086" fill="#3E30AB"/>
<circle cx="192.208" cy="105.538" r="10.3086" fill="#3E30AB"/>
<circle cx="241.308" cy="139.309" r="10.3086" fill="#3E30AB"/>
<circle cx="242.753" cy="190.668" r="10.3086" fill="#3E30AB"/>
<circle cx="228.122" cy="241.878" r="10.3086" fill="#3E30AB"/>
<circle cx="192.208" cy="277.127" r="10.3086" fill="#3E30AB"/>
<circle cx="140.333" cy="291.093" r="10.3086" fill="#3E30AB"/>
<circle cx="89.7869" cy="277.127" r="10.3086" fill="#3E30AB"/>
<circle cx="52.5427" cy="239.883" r="10.3086" fill="#3E30AB"/>
<circle cx="37.2464" cy="190.668" r="10.3086" fill="#3E30AB"/>
<circle cx="52.5427" cy="141.452" r="10.3086" fill="#3E30AB"/>
<circle cx="89.7869" cy="105.538" r="10.3086" fill="#3E30AB"/>
<path d="M155.297 119.837C149.713 138.278 148.576 148.284 142.992 166.725C142.992 166.725 141.25 166.392 140.332 166.392C139.414 166.392 137.672 166.725 137.672 166.725L126.367 119.837C126.367 119.837 127.032 105.538 140.998 105.538C154.964 105.538 155.297 119.837 155.297 119.837Z" fill="#312682"/>
<path d="M190.494 137.375C176.438 150.553 170.45 158.65 156.394 171.828C156.394 171.828 155.051 170.669 154.256 170.21C153.461 169.751 151.786 169.168 151.786 169.168L165.439 122.91C165.439 122.91 173.165 110.859 185.26 117.842C197.355 124.825 190.494 137.375 190.494 137.375Z" fill="#312682"/>
<path d="M210.368 167.338C191.606 171.723 182.371 175.741 163.609 180.126C163.609 180.126 163.026 178.451 162.567 177.655C162.108 176.86 160.949 175.518 160.949 175.518L195.902 142.284C195.902 142.284 208.619 135.711 215.601 147.805C222.584 159.9 210.368 167.338 210.368 167.338Z" fill="#312682"/>
<path d="M214.155 206.629C195.714 201.045 185.708 199.908 167.267 194.324C167.267 194.324 167.6 192.582 167.6 191.664C167.6 190.746 167.267 189.004 167.267 189.004L214.155 177.699C214.155 177.699 228.454 178.364 228.454 192.33C228.454 206.296 214.155 206.629 214.155 206.629Z" fill="#312682"/>
<path d="M195.902 240.829C182.724 226.773 174.627 220.785 161.449 206.729C161.449 206.729 162.608 205.386 163.067 204.591C163.526 203.796 164.109 202.121 164.109 202.121L210.368 215.774C210.368 215.774 222.418 223.5 215.435 235.595C208.452 247.69 195.902 240.829 195.902 240.829Z" fill="#312682"/>
<path d="M165.438 261.368C161.054 242.606 157.035 233.372 152.651 214.61C152.651 214.61 154.326 214.027 155.121 213.568C155.916 213.109 157.259 211.95 157.259 211.95L190.493 246.903C190.493 246.903 197.066 259.619 184.971 266.602C172.876 273.585 165.438 261.368 165.438 261.368Z" fill="#312682"/>
<path d="M126.367 264.49C131.951 246.05 133.087 236.044 138.671 217.603C138.671 217.603 140.414 217.935 141.332 217.935C142.25 217.935 143.992 217.603 143.992 217.603L155.297 264.49C155.297 264.49 154.631 278.79 140.666 278.79C126.7 278.79 126.367 264.49 126.367 264.49Z" fill="#312682"/>
<path d="M91.9484 246.903C106.005 233.725 111.992 225.627 126.049 212.449C126.049 212.449 127.391 213.608 128.186 214.067C128.981 214.527 130.656 215.11 130.656 215.11L117.003 261.368C117.003 261.368 109.277 273.418 97.1822 266.435C85.0874 259.453 91.9484 246.903 91.9484 246.903Z" fill="#312682"/>
<path d="M68.5845 214.444C87.3466 210.059 96.5808 206.04 115.343 201.656C115.343 201.656 115.926 203.331 116.385 204.126C116.844 204.922 118.003 206.264 118.003 206.264L83.0498 239.498C83.0498 239.498 70.3336 246.071 63.3507 233.976C56.3678 221.882 68.5845 214.444 68.5845 214.444Z" fill="#312682"/>
<path d="M65.8449 177.698C84.2855 183.282 94.2919 184.419 112.733 190.003C112.733 190.003 112.4 191.745 112.4 192.664C112.4 193.582 112.733 195.324 112.733 195.324L65.8449 206.629C65.8449 206.629 51.5459 205.963 51.5459 191.997C51.5459 178.031 65.8449 177.698 65.8449 177.698Z" fill="#312682"/>
<path d="M83.7151 142.948C96.8931 157.004 104.99 162.992 118.168 177.048C118.168 177.048 117.009 178.391 116.55 179.186C116.091 179.981 115.508 181.656 115.508 181.656L69.2498 168.003C69.2498 168.003 57.1993 160.277 64.1822 148.182C71.1652 136.087 83.7151 142.948 83.7151 142.948Z" fill="#312682"/>
<path d="M117.668 122.244C122.053 141.007 126.071 150.241 130.456 169.003C130.456 169.003 128.781 169.586 127.985 170.045C127.19 170.504 125.848 171.663 125.848 171.663L92.6136 136.71C92.6136 136.71 86.0406 123.994 98.1354 117.011C110.23 110.028 117.668 122.244 117.668 122.244Z" fill="#312682"/>
<circle cx="140" cy="192.33" r="17.9569" fill="#4D3CC8"/>
<path d="M131.064 182.697L139.632 72L148.714 182.183L139.632 191.265L131.064 182.697Z" fill="#5848CB"/>
<path d="M141.157 183.974L210.035 151.012L147.532 194.31L139 192.024L141.157 183.974Z" fill="#9A8CFF"/>
</g>
<defs>
<clipPath id="clip0_629_479">
<rect width="280" height="380" fill="white"/>
</clipPath>
</defs>
</svg>
