<svg width="280" height="380" viewBox="0 0 280 380" fill="none" xmlns="http://www.w3.org/2000/svg">
<g clip-path="url(#clip0_629_553)">
<rect width="280" height="380" fill="#EAF5F7"/>
<rect width="280" height="380" fill="#FFBC4B"/>
<rect x="202" y="129" width="40.8428" height="125.832" fill="#FF4C38"/>
<rect x="76.9999" y="213" width="41" height="126" transform="rotate(180 76.9999 213)" fill="#FF4C38"/>
<rect x="157.843" y="383.832" width="40.8428" height="125.832" transform="rotate(180 157.843 383.832)" fill="#FF4C38"/>
<rect x="202.364" y="128.439" width="40.8428" height="125.832" transform="rotate(180 202.364 128.439)" fill="#FF4C38"/>
<rect x="202.664" y="128.139" width="40.8428" height="125.832" transform="rotate(90 202.664 128.139)" fill="#FFBC4B"/>
<rect x="200" y="253.843" width="40.8428" height="125.832" transform="rotate(-90 200 253.843)" fill="#FFBC4B"/>
<rect x="-48.7937" y="254.159" width="40.8428" height="125.832" transform="rotate(-90 -48.7937 254.159)" fill="#FFBC4B"/>
<rect x="76" y="334.843" width="40.8428" height="125.832" transform="rotate(-90 76 334.843)" fill="#FFBC4B"/>
<rect x="76.5315" y="128.439" width="40.8428" height="125.832" transform="rotate(-90 76.5315 128.439)" fill="#FFBC4B"/>
<rect x="201.843" y="253.832" width="40.8428" height="125.832" transform="rotate(-180 201.843 253.832)" fill="#FF8F00"/>
<rect x="243" y="129" width="40.8428" height="125.832" fill="#FF8F00"/>
<rect x="77" y="254" width="40.8428" height="125.832" fill="#FF8F00"/>
<rect x="76.9999" y="-38" width="40.8428" height="125.832" fill="#FF8F00"/>
<rect x="202" y="169" width="44" height="126" transform="rotate(90 202 169)" fill="#FF4C38"/>
<rect x="202" y="168.843" width="40.8428" height="125.832" transform="rotate(-90 202 168.843)" fill="#FF4C38"/>
<rect x="35.9999" y="125.843" width="40.8428" height="125.832" transform="rotate(-90 35.9999 125.843)" fill="#FF4C38"/>
<rect x="76.9999" y="294.843" width="40.8428" height="125.832" transform="rotate(-90 76.9999 294.843)" fill="#FF4C38"/>
<rect x="76.9999" y="37.8428" width="40.8428" height="125.832" transform="rotate(-90 76.9999 37.8428)" fill="#FF4C38"/>
<rect x="-5" y="213" width="40.8428" height="40.8428" fill="#FF4C38"/>
<rect x="243" y="254" width="40.8428" height="125.832" fill="#FF4C38"/>
<rect x="328.708" y="253.853" width="40.8428" height="125.832" transform="rotate(90 328.708 253.853)" fill="#FFBC4B"/>
<rect x="328.708" y="338.842" width="40.8428" height="125.832" transform="rotate(90 328.708 338.842)" fill="#FF4C38"/>
<rect x="201.999" y="254" width="40.8428" height="40.8428" fill="#FF4C38"/>
<rect x="76.8569" y="2.00003" width="40.8428" height="125.832" transform="rotate(90 76.8569 2.00003)" fill="#FFBC4B"/>
<rect x="76.843" y="125.832" width="40.8428" height="125.832" transform="rotate(180 76.843 125.832)" fill="#FF8F00"/>
<rect x="76.8322" y="38" width="40.8428" height="125.832" transform="rotate(90 76.8322 38)" fill="#FF4C38"/>
<rect x="202" y="2.00018" width="40.8428" height="125.832" fill="#FF4C38"/>
<rect x="327.859" y="2.42445" width="40.8428" height="125.832" transform="rotate(90 327.859 2.42445)" fill="#FFBC4B"/>
<rect x="328.832" y="88.0002" width="40.8428" height="125.832" transform="rotate(90 328.832 88.0002)" fill="#FF4C38"/>
<rect x="202" y="87.0002" width="40.8428" height="40.8428" fill="#FF4C38"/>
<rect x="76.8497" y="253.852" width="40.8428" height="125.832" transform="rotate(90 76.8497 253.852)" fill="#FFBC4B"/>
<rect x="35.8427" y="379.832" width="40.8428" height="125.832" transform="rotate(180 35.8427 379.832)" fill="#FF8F00"/>
<rect x="76.8318" y="295" width="40.8428" height="125.832" transform="rotate(90 76.8318 295)" fill="#FF4C38"/>
<rect x="76.8427" y="166.843" width="40.8428" height="40.8428" transform="rotate(180 76.8427 166.843)" fill="#FF4C38"/>
<rect x="157.843" y="294.843" width="40.8428" height="40.8428" transform="rotate(180 157.843 294.843)" fill="#FF4C38"/>
<rect x="202.364" y="43.4501" width="40.8428" height="40.8428" transform="rotate(180 202.364 43.4501)" fill="#FF4C38"/>
</g>
<defs>
<clipPath id="clip0_629_553">
<rect width="280" height="380" fill="white"/>
</clipPath>
</defs>
</svg>
