<svg width="51" height="51" viewBox="0 0 51 51" fill="none" xmlns="http://www.w3.org/2000/svg">
<path d="M43 47.6968H8C5.23857 47.6968 3 45.1785 3 42.0718V8.32178C3 5.21517 5.23857 2.69678 8 2.69678H33C35.7615 2.69678 38 5.21517 38 8.32178V11.1343M43 47.6968C40.2385 47.6968 38 45.1785 38 42.0718V11.1343M43 47.6968C45.7615 47.6968 48 45.1785 48 42.0718V16.7593C48 13.6527 45.7615 11.1343 43 11.1343H38M28 2.69678H18M13 36.4468H28M13 13.9468H28V25.1968H13V13.9468Z" stroke="#FF8F00" stroke-width="5" stroke-linecap="round" stroke-linejoin="round"/>
</svg>
