<svg width="45" height="46" viewBox="0 0 45 46" fill="none" xmlns="http://www.w3.org/2000/svg">
<path d="M11.25 4.49182L5.625 11.9918V38.2418C5.625 39.2364 6.02009 40.1902 6.72335 40.8935C7.42661 41.5967 8.38044 41.9918 9.375 41.9918H35.625C36.6196 41.9918 37.5734 41.5967 38.2766 40.8935C38.9799 40.1902 39.375 39.2364 39.375 38.2418V11.9918L33.75 4.49182H11.25Z" stroke="#FF8F00" stroke-width="5" stroke-linecap="round" stroke-linejoin="round"/>
<path d="M5.625 11.9918H39.375" stroke="#FF8F00" stroke-width="5" stroke-linecap="round" stroke-linejoin="round"/>
<path d="M30 19.4918C30 21.4809 29.2098 23.3886 27.8033 24.7951C26.3968 26.2016 24.4891 26.9918 22.5 26.9918C20.5109 26.9918 18.6032 26.2016 17.1967 24.7951C15.7902 23.3886 15 21.4809 15 19.4918" stroke="#FF8F00" stroke-width="5" stroke-linecap="round" stroke-linejoin="round"/>
</svg>
