<svg width="53" height="56" viewBox="0 0 53 56" fill="none" xmlns="http://www.w3.org/2000/svg">
<rect y="-6.10352e-05" width="53" height="56" rx="10" fill="#FF8F00"/>
<path d="M42 42.9999V39.6666C42 37.8985 41.1571 36.2028 39.6569 34.9526C38.1566 33.7023 36.1217 32.9999 34 32.9999H18C15.8783 32.9999 13.8434 33.7023 12.3431 34.9526C10.8429 36.2028 10 37.8985 10 39.6666V42.9999" stroke="white" stroke-width="5" stroke-linecap="round" stroke-linejoin="round"/>
<path d="M26 25.9999C29.3137 25.9999 32 23.3136 32 19.9999C32 16.6862 29.3137 13.9999 26 13.9999C22.6863 13.9999 20 16.6862 20 19.9999C20 23.3136 22.6863 25.9999 26 25.9999Z" stroke="white" stroke-width="5" stroke-linecap="round" stroke-linejoin="round"/>
</svg>
