<svg width="44" height="44" viewBox="0 0 44 44" fill="none" xmlns="http://www.w3.org/2000/svg">
<path d="M22 41.25C32.6315 41.25 41.25 32.6315 41.25 22C41.25 11.3685 32.6315 2.75 22 2.75C11.3685 2.75 2.75 11.3685 2.75 22C2.75 32.6315 11.3685 41.25 22 41.25Z" fill="url(#paint0_linear_675_2049)"/>
<path d="M29.1688 27.8872L30.024 22.4539H24.6747V18.9296C24.6747 17.4428 25.4206 15.9928 27.8165 15.9928H30.25V11.3671C30.25 11.3671 28.0424 11 25.9329 11C21.5254 11 18.6473 13.6028 18.6473 18.3128V22.4539H13.75V27.8872H18.6473V41.0224C19.6305 41.173 20.6363 41.25 21.6609 41.25C22.6856 41.25 23.6915 41.173 24.6747 41.0224V27.8872H29.1688Z" fill="white"/>
<defs>
<linearGradient id="paint0_linear_675_2049" x1="22" y1="2.75" x2="22" y2="41.1359" gradientUnits="userSpaceOnUse">
<stop stop-color="#18ACFE"/>
<stop offset="1" stop-color="#0163E0"/>
</linearGradient>
</defs>
</svg>
