<svg width="38" height="38" viewBox="0 0 38 38" fill="none" xmlns="http://www.w3.org/2000/svg">
<path d="M35.6266 19.3691C35.6266 18.0021 35.5134 17.0046 35.2684 15.9702H19.3408V22.1399H28.69C28.5016 23.6732 27.4836 25.9821 25.2217 27.5337L25.19 27.7404L30.226 31.5636L30.5749 31.5977C33.7793 28.6976 35.6266 24.4304 35.6266 19.3691Z" fill="#4285F4"/>
<path d="M19.3403 35.6251C23.9206 35.6251 27.7657 34.1473 30.5744 31.5982L25.2211 27.5341C23.7887 28.5132 21.866 29.1966 19.3403 29.1966C14.8543 29.1966 11.0467 26.2966 9.68947 22.2881L9.49052 22.3046L4.25403 26.2762L4.18555 26.4627C6.9752 31.8937 12.7054 35.6251 19.3403 35.6251Z" fill="#34A853"/>
<path d="M9.69037 22.2879C9.33225 21.2534 9.12498 20.145 9.12498 18.9998C9.12498 17.8545 9.33225 16.7462 9.67153 15.7117L9.66204 15.4913L4.35991 11.4561L4.18644 11.5369C3.03669 13.7906 2.37695 16.3213 2.37695 18.9998C2.37695 21.6782 3.03669 24.2089 4.18644 26.4625L9.69037 22.2879Z" fill="#FBBC05"/>
<path d="M19.3404 8.80329C22.5259 8.80329 24.6747 10.1518 25.8999 11.2786L30.6876 6.6975C27.7472 4.01903 23.9207 2.375 19.3404 2.375C12.7054 2.375 6.97521 6.10636 4.18555 11.5371L9.67066 15.7119C11.0468 11.7035 14.8543 8.80329 19.3404 8.80329Z" fill="#EB4335"/>
</svg>
