<svg width="33" height="38" viewBox="0 0 33 38" fill="none" xmlns="http://www.w3.org/2000/svg">
<path d="M27.5906 20.0809C27.5731 16.9674 29.0285 14.6174 31.9742 12.8867C30.326 10.6046 27.8361 9.34899 24.5484 9.10298C21.436 8.86548 18.0343 10.8591 16.7894 10.8591C15.4743 10.8591 12.4583 9.18787 10.0911 9.18787C5.19899 9.26418 0 12.9631 0 20.4881C0 22.7109 0.420829 25.0071 1.26249 27.3769C2.3847 30.4904 6.43518 38.1257 10.661 37.9984C12.8704 37.9476 14.4309 36.4799 17.3066 36.4799C20.0946 36.4799 21.5411 37.9984 24.0048 37.9984C28.2657 37.9391 31.9304 30.9994 33 27.8774C27.2837 25.2729 27.5906 20.2421 27.5906 20.0809ZM22.6283 6.15068C25.0218 3.40196 24.8026 0.899271 24.7325 0C22.6196 0.118771 20.1735 1.39133 18.7795 2.96081C17.2452 4.64058 16.3422 6.71908 16.5351 9.06057C18.8233 9.23028 20.91 8.09347 22.6283 6.15068Z" fill="white"/>
</svg>
